<svg width="151" height="150" viewBox="0 0 151 150" fill="none" xmlns="http://www.w3.org/2000/svg">
<circle cx="75.1875" cy="75" r="75" fill="#FF4331"/>
<path d="M39.9813 125C39.0979 125 38.3563 124.7 37.7563 124.1C37.1563 123.5 36.8563 122.756 36.8563 121.869C36.8563 120.981 37.1563 120.24 37.7563 119.644C38.3563 119.048 39.0979 118.75 39.9813 118.75H110.894C111.781 118.75 112.523 119.05 113.119 119.65C113.715 120.25 114.015 120.994 114.019 121.881C114.023 122.769 113.723 123.51 113.119 124.106C112.515 124.702 111.773 125 110.894 125H39.9813ZM44.8375 106.975C42.3792 106.975 40.2375 106.204 38.4125 104.663C36.5875 103.121 35.4167 101.163 34.9 98.7875L27.4375 59.2188C27.2292 59.3021 26.9958 59.3479 26.7375 59.3563C26.475 59.3688 26.2396 59.375 26.0312 59.375C24.0687 59.375 22.4375 58.7083 21.1375 57.375C19.8375 56.0417 19.1875 54.425 19.1875 52.525C19.1875 50.5542 19.8396 48.8792 21.1437 47.5C22.4437 46.125 24.0771 45.4375 26.0438 45.4375C28.0104 45.4375 29.6833 46.125 31.0625 47.5C32.4375 48.8792 33.125 50.5542 33.125 52.525C33.125 52.9583 33.1083 53.3604 33.075 53.7313C33.0417 54.1021 32.9188 54.4688 32.7063 54.8313L49.9562 61.775C50.7562 62.0958 51.5583 62.1375 52.3625 61.9C53.1625 61.6583 53.8417 61.1771 54.4 60.4563L71.2875 37.5813C70.3833 36.9896 69.6667 36.2063 69.1375 35.2313C68.6083 34.2604 68.3438 33.2125 68.3438 32.0875C68.3438 30.1208 69.0333 28.4479 70.4125 27.0688C71.7875 25.6896 73.4604 25 75.4312 25C77.3979 25 79.0729 25.6875 80.4563 27.0625C81.8396 28.4375 82.5312 30.1042 82.5312 32.0625C82.5312 33.2458 82.2667 34.3125 81.7375 35.2625C81.2083 36.2208 80.4917 36.9938 79.5875 37.5813L96.475 60.4563C97.0333 61.1771 97.7125 61.6563 98.5125 61.8938C99.3167 62.1396 100.119 62.1021 100.919 61.7813L118.169 54.8313C118.056 54.4979 117.958 54.1333 117.875 53.7375C117.792 53.3375 117.75 52.9333 117.75 52.525C117.75 50.5542 118.4 48.8792 119.7 47.5C121 46.125 122.633 45.4375 124.6 45.4375C126.567 45.4375 128.24 46.125 129.619 47.5C130.998 48.8792 131.688 50.5542 131.688 52.525C131.688 54.4167 130.996 56.0313 129.612 57.3688C128.229 58.7063 126.55 59.375 124.575 59.375C124.417 59.375 124.237 59.35 124.037 59.3C123.837 59.25 123.617 59.2229 123.375 59.2188L115.975 98.7813C115.454 101.165 114.283 103.125 112.463 104.663C110.642 106.2 108.5 106.971 106.037 106.975H44.8375Z" fill="#FFDD00"/>
</svg>
